<svg width="180" height="40" viewBox="0 0 180 40" fill="none" xmlns="http://www.w3.org/2000/svg">
  <!-- Brain Icon - Teal/Cyan -->
  <g transform="translate(0, 2)">
    <!-- Main brain nodes -->
    <rect x="12" y="8" width="6" height="6" rx="1" fill="#14B8A6"/>
    <rect x="20" y="4" width="5" height="5" rx="1" fill="#14B8A6"/>
    <rect x="26" y="10" width="6" height="6" rx="1" fill="#14B8A6"/>
    <rect x="8" y="16" width="5" height="5" rx="1" fill="#14B8A6"/>
    <rect x="15" y="14" width="7" height="7" rx="1" fill="#14B8A6"/>
    <rect x="24" y="18" width="5" height="5" rx="1" fill="#14B8A6"/>
    <rect x="4" y="22" width="6" height="6" rx="1" fill="#14B8A6"/>
    <rect x="12" y="24" width="5" height="5" rx="1" fill="#14B8A6"/>
    <rect x="19" y="26" width="6" height="6" rx="1" fill="#14B8A6"/>
    <rect x="28" y="24" width="4" height="4" rx="1" fill="#14B8A6"/>
    <!-- Connecting lines -->
    <path d="M15 14L18 11" stroke="#14B8A6" stroke-width="1.5"/>
    <path d="M22 9L24 12" stroke="#14B8A6" stroke-width="1.5"/>
    <path d="M13 19L16 17" stroke="#14B8A6" stroke-width="1.5"/>
    <path d="M22 17L24 20" stroke="#14B8A6" stroke-width="1.5"/>
    <path d="M10 24L14 22" stroke="#14B8A6" stroke-width="1.5"/>
    <path d="M17 26L20 24" stroke="#14B8A6" stroke-width="1.5"/>
  </g>
  <!-- Text - SECOND BRAIN -->
  <text x="44" y="26" font-family="Inter, -apple-system, sans-serif" font-size="16" font-weight="700" fill="#8B5CF6">SECOND BRAIN</text>
</svg>
